<svg width="13" height="13" viewBox="0 0 13 13" fill="none" xmlns="http://www.w3.org/2000/svg">
<path d="M1.67214 5.60174C1.53332 5.7427 1.45613 5.93299 1.45752 6.13082C1.45891 6.32865 1.53876 6.51784 1.67955 6.65683L4.51423 9.45345C4.65526 9.59251 4.84575 9.66986 5.04381 9.66846C5.24186 9.66707 5.43125 9.58706 5.57031 9.44603C5.70938 9.305 5.78672 9.11451 5.78533 8.91645C5.78394 8.7184 5.70392 8.52901 5.5629 8.38995L4.01124 6.85945L9.75202 6.81912C9.95001 6.81773 10.1393 6.73774 10.2784 6.59676C10.4174 6.45578 10.4947 6.26534 10.4933 6.06735C10.4919 5.86936 10.4119 5.68003 10.2709 5.54101C10.13 5.402 9.93952 5.32468 9.74153 5.32607L4.00075 5.3664L5.53076 3.81474C5.59961 3.74491 5.65404 3.6622 5.69093 3.57134C5.72782 3.48047 5.74646 3.38323 5.74577 3.28517C5.74508 3.1871 5.72508 3.09013 5.68692 2.99979C5.64875 2.90945 5.59317 2.82752 5.52334 2.75866C5.45351 2.6898 5.3708 2.63538 5.27993 2.59848C5.18907 2.56159 5.09183 2.54296 4.99376 2.54365C4.89569 2.54434 4.79872 2.56433 4.70838 2.6025C4.61805 2.64066 4.53611 2.69625 4.46725 2.76608L1.67214 5.60174Z" fill="black"/>
</svg>
