<svg width="39" height="37" viewBox="0 0 39 37" fill="none" xmlns="http://www.w3.org/2000/svg">
<path d="M11.7222 11.7059H27.2778M11.7222 19.4706H23.3889M31.1667 2C32.7138 2 34.1975 2.61355 35.2915 3.70567C36.3854 4.7978 37 6.27903 37 7.82353V23.3529C37 24.8974 36.3854 26.3787 35.2915 27.4708C34.1975 28.5629 32.7138 29.1765 31.1667 29.1765H21.4444L11.7222 35V29.1765H7.83333C6.28624 29.1765 4.80251 28.5629 3.70854 27.4708C2.61458 26.3787 2 24.8974 2 23.3529V7.82353C2 6.27903 2.61458 4.7978 3.70854 3.70567C4.80251 2.61355 6.28624 2 7.83333 2H31.1667Z" stroke="#E40000" stroke-width="3" stroke-linecap="round" stroke-linejoin="round"/>
</svg>
