<svg width="29" height="29" viewBox="0 0 29 29" fill="none" xmlns="http://www.w3.org/2000/svg">
<g clip-path="url(#clip0_99_56)">
<path d="M240 -125C240 -55 136.21 1.66 131.79 4C130.625 4.62669 129.323 4.95473 128 4.95473C126.677 4.95473 125.375 4.62669 124.21 4C119.79 1.66 16 -55 16 -125C16.0185 -141.438 22.5566 -157.197 34.1798 -168.82C45.8031 -180.443 61.5623 -186.981 78 -187C98.65 -187 116.73 -178.12 128 -163.11C139.27 -178.12 157.35 -187 178 -187C194.438 -186.981 210.197 -180.443 221.82 -168.82C233.443 -157.197 239.981 -141.438 240 -125Z" fill="black"/>
</g>
<defs>
<clipPath id="clip0_99_56">
<rect width="29" height="29" fill="white"/>
</clipPath>
</defs>
</svg>
