<svg width="166" height="96" viewBox="0 0 166 96" fill="none" xmlns="http://www.w3.org/2000/svg">
<path d="M16.64 59.672C14.4427 59.672 12.4907 59.4587 10.784 59.032C9.09867 58.6053 7.712 58.0293 6.624 57.304C5.55733 56.5787 4.672 55.6827 3.968 54.616C3.28533 53.528 2.80533 52.3867 2.528 51.192C2.25067 49.9973 2.112 48.6747 2.112 47.224V21.496H13.504V45.784C13.504 48.4933 13.7813 50.36 14.336 51.384C14.912 52.3867 15.744 52.888 16.832 52.888C17.4293 52.888 17.952 52.792 18.4 52.6C18.848 52.3867 19.264 52.0347 19.648 51.544C20.032 51.032 20.32 50.3067 20.512 49.368C20.7253 48.408 20.832 47.2453 20.832 45.88V21.496H30.944V47.416C30.944 48.8453 30.816 50.136 30.56 51.288C30.3253 52.44 29.8773 53.56 29.216 54.648C28.576 55.7147 27.7227 56.6107 26.656 57.336C25.6107 58.04 24.2347 58.6053 22.528 59.032C20.8427 59.4587 18.88 59.672 16.64 59.672ZM45.9257 59H35.5898V38.296L33.6698 37.112V33.688L40.5497 31.8H45.9897V35.928L46.3738 35.448C46.6297 35.1067 47.0031 34.7013 47.4937 34.232C48.0057 33.7627 48.5711 33.304 49.1897 32.856C49.8084 32.3867 50.5444 31.992 51.3977 31.672C52.2724 31.3307 53.1258 31.16 53.9577 31.16C56.8804 31.16 58.9391 31.96 60.1337 33.56C61.3497 35.16 61.9577 37.8373 61.9577 41.592C61.9577 41.72 61.9577 41.912 61.9577 42.168C61.9364 42.424 61.9257 42.6267 61.9257 42.776V59H51.3658V41.848C51.4298 39.8427 50.5764 38.84 48.8057 38.84C48.6777 38.84 48.5497 38.8507 48.4218 38.872C48.3151 38.8933 48.2084 38.9147 48.1017 38.936C48.0164 38.9573 47.9097 39 47.7817 39.064C47.6751 39.1067 47.5791 39.1493 47.4937 39.192C47.4084 39.2133 47.3124 39.2667 47.2057 39.352C47.0991 39.416 47.0138 39.4693 46.9497 39.512C46.8857 39.5547 46.7897 39.6293 46.6617 39.736C46.5551 39.8213 46.4697 39.8853 46.4057 39.928C46.3631 39.9707 46.2777 40.0453 46.1497 40.152C46.0431 40.2373 45.9684 40.3013 45.9257 40.344V59ZM65.9648 59V38.296L64.0448 37.112V33.688L70.9247 31.8H76.2687V59H65.9648ZM70.6047 28.856L65.3567 23.576V22.456L70.6047 17.208H71.8207L77.2927 22.456V23.576L71.8207 28.856H70.6047ZM95.0515 42.456C95.0515 39.7467 94.9128 37.8267 94.6355 36.696C94.3582 35.5653 93.8462 35 93.0995 35C92.4595 35 91.9368 35.1173 91.5315 35.352C91.1262 35.5653 90.8275 35.9173 90.6355 36.408C90.4435 36.8773 90.3155 37.368 90.2515 37.88C90.2088 38.3707 90.1875 39 90.1875 39.768V42.456H95.0515ZM92.4915 59.672C90.1022 59.672 88.0222 59.3093 86.2515 58.584C84.5022 57.8587 83.1155 56.8453 82.0915 55.544C81.0888 54.2427 80.3528 52.7813 79.8835 51.16C79.4142 49.5173 79.1795 47.6933 79.1795 45.688C79.1795 40.9093 80.3955 37.2933 82.8275 34.84C85.2595 32.3867 88.6622 31.16 93.0355 31.16C97.2382 31.16 100.246 32.152 102.059 34.136C103.873 36.0987 104.78 39.2667 104.78 43.64V47.192H90.1555V47.8C90.1555 49.0587 90.2835 50.0933 90.5395 50.904C90.8168 51.7147 91.2115 52.312 91.7235 52.696C92.2355 53.08 92.7582 53.336 93.2915 53.464C93.8248 53.592 94.4755 53.656 95.2435 53.656C95.9902 53.656 96.7902 53.56 97.6435 53.368C98.5182 53.176 99.3928 52.8773 100.268 52.472C101.164 52.0667 101.91 51.5867 102.507 51.032L104.396 54.264C103.606 55.544 102.444 56.6213 100.907 57.496C99.3928 58.3493 97.9315 58.9253 96.5235 59.224C95.1155 59.5227 93.7715 59.672 92.4915 59.672ZM116.662 59.672C114.657 59.672 112.63 59.3413 110.582 58.68C108.534 57.9973 107.222 57.336 106.646 56.696L107.478 51.544C108.203 52.248 109.409 52.856 111.094 53.368C112.801 53.88 114.539 54.136 116.31 54.136C117.59 54.136 118.465 53.976 118.934 53.656C119.425 53.336 119.67 52.888 119.67 52.312C119.67 51.7573 119.243 51.2667 118.39 50.84C117.537 50.392 116.15 49.88 114.23 49.304C109.259 47.8107 106.774 44.7173 106.774 40.024C106.774 38.104 107.329 36.4613 108.438 35.096C109.547 33.7093 110.966 32.7067 112.694 32.088C114.422 31.4693 116.353 31.16 118.486 31.16C122.134 31.16 124.822 31.832 126.55 33.176C126.934 33.5387 127.126 33.72 127.126 33.72L125.718 38.296C124.31 36.9093 122.369 36.216 119.894 36.216C117.867 36.216 116.854 36.8133 116.854 38.008C116.854 38.3493 116.929 38.6373 117.078 38.872C117.227 39.0853 117.473 39.2773 117.814 39.448C118.177 39.5973 118.529 39.7253 118.87 39.832C119.211 39.9173 119.691 40.0453 120.31 40.216C120.929 40.3653 121.462 40.504 121.91 40.632C124.406 41.464 126.219 42.6373 127.35 44.152C128.481 45.6667 129.046 47.5547 129.046 49.816C129.046 56.3867 124.918 59.672 116.662 59.672ZM148.161 59C146.924 59 145.793 58.872 144.769 58.616C143.745 58.36 142.849 58.04 142.081 57.656V68.664H131.777V38.296L129.857 37.112V33.688L136.737 31.8H142.081V33.944C142.849 33.1547 143.777 32.4933 144.865 31.96C145.953 31.4267 147.223 31.16 148.673 31.16C152.193 31.16 154.775 32.3653 156.417 34.776C158.081 37.1867 158.913 40.5253 158.913 44.792C158.913 46.7973 158.689 48.6533 158.241 50.36C157.793 52.0453 157.132 53.5387 156.257 54.84C155.383 56.1413 154.252 57.1653 152.865 57.912C151.5 58.6373 149.932 59 148.161 59ZM143.457 54.552C146.316 54.552 147.745 52.3653 147.745 47.992V42.552C147.745 40.632 147.415 39.2027 146.753 38.264C146.113 37.3253 145.281 36.856 144.257 36.856C143.553 36.856 142.828 37.0693 142.081 37.496V54.392C142.337 54.456 142.572 54.4987 142.785 54.52C143.02 54.5413 143.244 54.552 143.457 54.552Z" fill="white"/>
<path d="M91 26.488C90.2 26.936 89.0853 27.16 87.656 27.16C86.2373 27.16 84.984 26.648 83.896 25.624C82.8187 24.6 82.28 23.3307 82.28 21.816C82.28 20.2907 82.7493 19.016 83.688 17.992C84.6373 16.968 85.8587 16.456 87.352 16.456C88.5573 16.456 89.736 16.6427 90.888 17.016L90.696 17.624C89.5867 17.2827 88.44 17.112 87.256 17.112C86.072 17.112 85.0747 17.5653 84.264 18.472C83.464 19.368 83.064 20.472 83.064 21.784C83.064 23.0853 83.528 24.1947 84.456 25.112C85.3947 26.0293 86.4773 26.488 87.704 26.488C88.9307 26.488 89.9493 26.3173 90.76 25.976L91 26.488ZM98.0589 27.16C96.5762 27.16 95.3335 26.6427 94.3309 25.608C93.3282 24.5733 92.8269 23.3093 92.8269 21.816C92.8269 20.312 93.3282 19.0427 94.3309 18.008C95.3335 16.9733 96.5762 16.456 98.0589 16.456C99.5415 16.456 100.784 16.9733 101.787 18.008C102.79 19.0427 103.291 20.312 103.291 21.816C103.291 23.3093 102.79 24.5733 101.787 25.608C100.784 26.6427 99.5415 27.16 98.0589 27.16ZM98.0589 17.112C96.7789 17.112 95.7122 17.5653 94.8589 18.472C94.0162 19.3787 93.5949 20.4933 93.5949 21.816C93.5949 23.128 94.0162 24.2373 94.8589 25.144C95.7122 26.04 96.7789 26.488 98.0589 26.488C99.3495 26.488 100.416 26.04 101.259 25.144C102.102 24.2373 102.523 23.128 102.523 21.816C102.523 20.4933 102.102 19.3787 101.259 18.472C100.416 17.5653 99.3495 17.112 98.0589 17.112ZM106.498 27V16.552H106.85L113.666 24.392C113.911 24.6693 114.135 24.9467 114.338 25.224C114.551 25.4907 114.663 25.6293 114.674 25.64C114.653 25.384 114.642 24.8827 114.642 24.136V16.616H115.378V27.064H115.026L108.082 19.096L107.202 18.024C107.223 18.2373 107.234 18.7387 107.234 19.528V27H106.498ZM119.217 27V16.616H124.065V17.256H119.953V21.032H123.665V21.656H119.953V26.328H124.225V27H119.217ZM135.25 26.488C134.45 26.936 133.335 27.16 131.906 27.16C130.487 27.16 129.234 26.648 128.146 25.624C127.069 24.6 126.53 23.3307 126.53 21.816C126.53 20.2907 126.999 19.016 127.938 17.992C128.887 16.968 130.109 16.456 131.602 16.456C132.807 16.456 133.986 16.6427 135.138 17.016L134.946 17.624C133.837 17.2827 132.69 17.112 131.506 17.112C130.322 17.112 129.325 17.5653 128.514 18.472C127.714 19.368 127.314 20.472 127.314 21.784C127.314 23.0853 127.778 24.1947 128.706 25.112C129.645 26.0293 130.727 26.488 131.954 26.488C133.181 26.488 134.199 26.3173 135.01 25.976L135.25 26.488ZM139.729 17.272H136.209V16.616H143.969V17.272H140.449V27H139.729V17.272ZM145.666 23.4L144.178 27H143.426L147.778 16.552H148.21L152.594 27H151.778L150.274 23.4H145.666ZM147.954 17.736C147.794 18.216 147.65 18.616 147.522 18.936L145.922 22.776H150.018L148.434 18.952C148.189 18.3547 148.029 17.9493 147.954 17.736Z" fill="white"/>
</svg>
