<svg width="36" height="36" viewBox="0 0 36 36" fill="none" xmlns="http://www.w3.org/2000/svg">
<path d="M34.6 34.6C33.8268 35.3732 32.5732 35.3732 31.8 34.6L21.8658 24.6658C21.1452 23.9452 20.005 23.8987 19.1187 24.4017C18.5059 24.7494 17.8497 25.0488 17.15 25.3C15.85 25.7667 14.4667 26 13 26C9.36667 26 6.292 24.7413 3.776 22.224C1.26 19.7067 0.00133439 16.632 1.0582e-06 13C-0.00133228 9.368 1.25733 6.29333 3.776 3.776C6.29467 1.25867 9.36933 0 13 0C16.6307 0 19.706 1.25867 22.226 3.776C24.746 6.29333 26.004 9.368 26 13C26 14.4667 25.7667 15.85 25.3 17.15C25.0488 17.8497 24.7494 18.5059 24.4017 19.1187C23.8987 20.005 23.9452 21.1452 24.6658 21.8658L34.6 31.8C35.3732 32.5732 35.3732 33.8268 34.6 34.6ZM13 22C15.5 22 17.6253 21.1253 19.376 19.376C21.1267 17.6267 22.0013 15.5013 22 13C21.9987 10.4987 21.124 8.374 19.376 6.626C17.628 4.878 15.5027 4.00267 13 4C10.4973 3.99733 8.37267 4.87267 6.626 6.626C4.87933 8.37933 4.004 10.504 4 13C3.996 15.496 4.87133 17.6213 6.626 19.376C8.38067 21.1307 10.5053 22.0053 13 22Z" fill="#E40000"/>
</svg>
