<svg width="43" height="43" viewBox="0 0 43 43" fill="none" xmlns="http://www.w3.org/2000/svg">
<path d="M21.5 7.16663C23.4007 7.16663 25.2236 7.92168 26.5676 9.26569C27.9116 10.6097 28.6667 12.4326 28.6667 14.3333C28.6667 16.234 27.9116 18.0569 26.5676 19.4009C25.2236 20.7449 23.4007 21.5 21.5 21.5C19.5993 21.5 17.7764 20.7449 16.4324 19.4009C15.0884 18.0569 14.3333 16.234 14.3333 14.3333C14.3333 12.4326 15.0884 10.6097 16.4324 9.26569C17.7764 7.92168 19.5993 7.16663 21.5 7.16663ZM21.5 25.0833C29.4192 25.0833 35.8333 28.2904 35.8333 32.25V35.8333H7.16667V32.25C7.16667 28.2904 13.5808 25.0833 21.5 25.0833Z" fill="#E40000"/>
</svg>
